<svg xmlns="http://www.w3.org/2000/svg" viewBox="0 0 24 24" width="24" height="24"><path fill="currentColor" d="M12 2.001c-5.514 0-10 4.485-10 9.999s4.486 10 10 10 10-4.485 10-10-4.486-10-10-10zm0 18c-4.411 0-8-3.589-8-8s3.589-8 8-8 8 3.589 8 8-3.589 8-8 8z"/><path fill="currentColor" d="M16.194 8.185c-.117.034-.24.052-.364.052-.35 0-.634-.283-.634-.632 0-.124.018-.247.052-.364l4.444-1.598c.263-.094.45.171.356.434l-4.444 1.598zm-8.388 0c.117.034.24.052.364.052.35 0 .634-.283.634-.632 0-.124-.018-.247-.052-.364l4.444-1.598c.263-.094.156-.537-.184-.537h-2.336c-.34 0-.616.275-.616.615 0 1.035-.003 2.07-.003 3.106 0 .34-.275.616-.615.616h-1.997c-.34 0-.615-.276-.615-.616 0-1.035.002-2.07.002-3.106 0-.34-.276-.615-.616-.615h-2.337c-.34.001-.447.443-.185.537l4.445 1.598zm-.046 3.589h.005c.338 0 .613.275.613.616 0 1.043-.003 2.086-.003 3.128 0 .34-.275.615-.614.615h-1.996c-.339 0-.615-.275-.615-.615 0-1.043.002-2.086.002-3.128 0-.34.276-.616.615-.616zm8.237 0h.005c.338 0 .613.275.613.616 0 1.043-.003 2.086-.003 3.128 0 .34-.275.615-.614.615h-1.996c-.339 0-.615-.275-.615-.615 0-1.043.002-2.086.002-3.128 0-.34.276-.616.615-.616z"/></svg>