<svg xmlns="http://www.w3.org/2000/svg" xmlns:xlink="http://www.w3.org/1999/xlink" width="200" height="200" viewBox="0 0 200 200" fill="none">
  <defs>
    <rect id="path_0" x="0" y="0" width="200" height="200"/>
  </defs>
  <g opacity="1" transform="translate(0 0) rotate(0 100 100)">
    <rect fill="#FFFFFF" opacity="1" transform="translate(0 0) rotate(0 100 100)" x="0" y="0" width="200" height="200" rx="0"/>
    <mask id="bg-mask-0" fill="white">
      <use xlink:href="#path_0"/>
    </mask>
    <g mask="url(#bg-mask-0)">
      <path d="M512 512m-512 0a512 512 0 1 0 1024 0 512 512 0 1 0-1024 0Z" fill="#FFFFFF"/>
      <path d="M512 512m-418.909091 0a418.909091 418.909091 0 1 0 837.818182 0 418.909091 418.909091 0 1 0-837.818182 0Z" fill="#4AC7FF"/>
      <path d="M474.112 763.950545a33.28 33.28 0 0 1-14.056727 4.049455 21.038545 21.038545 0 0 1-21.317818-20.805818 19.549091 19.549091 0 0 1 1.210181-5.864727l40.494546-187.438546-167.656727 0.325818a21.224727 21.224727 0 0 1-21.876364-20.805818 20.433455 20.433455 0 0 1-2.792728-9.774545l-40.215272-184.32h-167.8429a21.666667 21.666667 0 36 -36 -36 -36 -36z" fill="#FFFFFF"/>
    </g>
  </g>
</svg>