<svg xmlns="http://www.w3.org/2000/svg" viewBox="0 0 24 24" width="24" height="24">
  <path fill="currentColor" d="M20.8 7.74c-.38-.34-.85-.5-1.36-.5-1.05 0-1.9.85-1.9 1.9 0 .51.2.98.53 1.34.34.38.8.56 1.33.56 1.06 0 1.9-.84 1.9-1.9 0-.54-.2-1-.56-1.34z"/>
  <path fill="currentColor" d="M11.5 6.5c-3.6 0-6.5 2.9-6.5 6.5s2.9 6.5 6.5 6.5 6.5-2.9 6.5-6.5-2.9-6.5-6.5-6.5zm0 11.5c-2.8 0-5-2.2-5-5s2.2-5 5-5 5 2.2 5 5-2.2 5-5 5z"/>
  <path fill="currentColor" d="M18.5 9.5c-.6 0-1 .4-1 1s.4 1 1 1 1-.4 1-1-.4-1-1-1z"/>
  <path fill="currentColor" d="M11.5 9.5c-1.9 0-3.5 1.6-3.5 3.5s1.6 3.5 3.5 3.5 3.5-1.6 3.5-3.5-1.6-3.5-3.5-3.5zm0 5.5c-1.1 0-2-.9-2-2s.9-2 2-2 2 .9 2 2-.9 2-2 2z"/>
</svg>